<mxfile host="65bd71144e">
    <diagram id="SJ3xjRnbtdSdUgG6eFaV" name="Page-1">
        <mxGraphModel dx="866" dy="734" grid="1" gridSize="10" guides="1" tooltips="1" connect="1" arrows="1" fold="1" page="1" pageScale="1" pageWidth="800" pageHeight="96" background="#FFFFFF" math="0" shadow="1">
            <root>
                <mxCell id="0"/>
                <mxCell id="1" parent="0"/>
                <mxCell id="2" value="応募者" style="shape=umlActor;verticalLabelPosition=bottom;verticalAlign=top;html=1;fillColor=default;gradientColor=none;strokeColor=#000000;strokeWidth=1;fontColor=#000000;sketch=1;curveFitting=1;jiggle=2;shadow=1;" parent="1" vertex="1">
                    <mxGeometry x="80" y="160" width="30" height="60" as="geometry"/>
                </mxCell>
                <mxCell id="9" style="edgeStyle=none;html=1;exitX=0;exitY=0.5;exitDx=0;exitDy=0;endArrow=none;endFill=0;strokeColor=#000000;fontColor=#000000;sketch=1;curveFitting=1;jiggle=2;shadow=1;" parent="1" source="3" target="2" edge="1">
                    <mxGeometry relative="1" as="geometry"/>
                </mxCell>
                <mxCell id="3" value="応募ページ" style="html=1;strokeColor=#000000;fontColor=#000000;labelBackgroundColor=#FFFFFF;fillColor=#FFFFFF;sketch=1;curveFitting=1;jiggle=2;shadow=1;" parent="1" vertex="1">
                    <mxGeometry x="200" y="160" width="120" height="60" as="geometry"/>
                </mxCell>
                <mxCell id="13" style="edgeStyle=none;html=1;exitX=0.5;exitY=1;exitDx=0;exitDy=0;entryX=0.5;entryY=0;entryDx=0;entryDy=0;endArrow=blockThin;endFill=1;strokeColor=#000000;fontColor=#000000;sketch=1;curveFitting=1;jiggle=2;shadow=1;" parent="1" source="4" target="5" edge="1">
                    <mxGeometry relative="1" as="geometry"/>
                </mxCell>
                <mxCell id="4" value="選考管理&lt;br&gt;システム" style="html=1;strokeColor=#000000;fontColor=#000000;labelBackgroundColor=#FFFFFF;fillColor=#FFFFFF;sketch=1;curveFitting=1;jiggle=2;shadow=1;" parent="1" vertex="1">
                    <mxGeometry x="200" y="260" width="120" height="60" as="geometry"/>
                </mxCell>
                <mxCell id="5" value="メールサービス" style="html=1;strokeColor=#000000;fontColor=#000000;labelBackgroundColor=#FFFFFF;fillColor=#FFFFFF;sketch=1;curveFitting=1;jiggle=2;shadow=1;" parent="1" vertex="1">
                    <mxGeometry x="200" y="380" width="120" height="60" as="geometry"/>
                </mxCell>
                <mxCell id="7" value="コミケ運営" style="shape=umlActor;verticalLabelPosition=bottom;verticalAlign=top;html=1;strokeColor=#000000;fontColor=#000000;sketch=1;curveFitting=1;jiggle=2;shadow=1;" parent="1" vertex="1">
                    <mxGeometry x="400" y="260" width="30" height="60" as="geometry"/>
                </mxCell>
                <mxCell id="10" style="edgeStyle=none;html=1;endArrow=none;endFill=0;strokeColor=#000000;fontColor=#000000;sketch=1;curveFitting=1;jiggle=2;shadow=1;" parent="1" edge="1">
                    <mxGeometry relative="1" as="geometry">
                        <mxPoint x="400" y="290" as="sourcePoint"/>
                        <mxPoint x="320" y="289.5" as="targetPoint"/>
                    </mxGeometry>
                </mxCell>
                <mxCell id="11" style="edgeStyle=none;html=1;exitX=0.5;exitY=0;exitDx=0;exitDy=0;endArrow=none;endFill=0;strokeColor=#000000;fontColor=#000000;sketch=1;curveFitting=1;jiggle=2;shadow=1;" parent="1" source="4" target="3" edge="1">
                    <mxGeometry relative="1" as="geometry">
                        <mxPoint x="420" y="299.5" as="sourcePoint"/>
                        <mxPoint x="330" y="299.5" as="targetPoint"/>
                    </mxGeometry>
                </mxCell>
                <mxCell id="12" style="edgeStyle=none;html=1;endArrow=none;endFill=0;entryX=1;entryY=0.5;entryDx=0;entryDy=0;strokeColor=#000000;fontColor=#000000;sketch=1;curveFitting=1;jiggle=2;shadow=1;" parent="1" target="3" edge="1">
                    <mxGeometry relative="1" as="geometry">
                        <mxPoint x="400" y="260" as="sourcePoint"/>
                        <mxPoint x="330" y="299.5" as="targetPoint"/>
                    </mxGeometry>
                </mxCell>
                <mxCell id="15" value="メール送信&#10;リクエスト" style="text;align=center;fontStyle=1;verticalAlign=middle;spacingLeft=3;spacingRight=3;strokeColor=#000000;rotatable=0;points=[[0,0.5],[1,0.5]];portConstraint=eastwest;fontColor=#000000;fillColor=none;sketch=1;curveFitting=1;jiggle=2;shadow=1;" parent="1" vertex="1">
                    <mxGeometry x="250" y="338" width="80" height="26" as="geometry"/>
                </mxCell>
                <mxCell id="20" style="edgeStyle=none;html=1;entryX=0;entryY=0.5;entryDx=0;entryDy=0;dashed=1;endArrow=none;endFill=0;strokeColor=#000000;fontColor=#000000;sketch=1;curveFitting=1;jiggle=2;shadow=1;" parent="1" target="5" edge="1">
                    <mxGeometry relative="1" as="geometry">
                        <mxPoint x="140" y="342" as="sourcePoint"/>
                    </mxGeometry>
                </mxCell>
                <mxCell id="18" value="外部サービス" style="rounded=0;whiteSpace=wrap;html=1;strokeColor=#000000;fontColor=#000000;labelBackgroundColor=#FFFFFF;fillColor=#FFFFFF;sketch=1;curveFitting=1;jiggle=2;shadow=1;" parent="1" vertex="1">
                    <mxGeometry x="40" y="320" width="100" height="44" as="geometry"/>
                </mxCell>
                <mxCell id="21" style="edgeStyle=none;html=1;exitX=1;exitY=0.25;exitDx=0;exitDy=0;entryX=1;entryY=0.5;entryDx=0;entryDy=0;dashed=1;endArrow=none;endFill=0;strokeColor=#000000;fontColor=#000000;sketch=1;curveFitting=1;jiggle=2;shadow=1;" parent="1" source="18" target="18" edge="1">
                    <mxGeometry relative="1" as="geometry"/>
                </mxCell>
                <mxCell id="26" value="※本来のシステムとまったく異なります" style="text;html=1;strokeColor=#000000;fillColor=none;align=center;verticalAlign=middle;whiteSpace=wrap;rounded=0;fontColor=#000000;shadow=1;sketch=1;curveFitting=1;jiggle=2;" vertex="1" parent="1">
                    <mxGeometry x="40" y="450" width="230" height="30" as="geometry"/>
                </mxCell>
            </root>
        </mxGraphModel>
    </diagram>
</mxfile>